<svg xmlns="http://www.w3.org/2000/svg" width="32" height="32" viewBox="0 0 32 32">
  <defs>
    <linearGradient id="bg" x1="0%" y1="0%" x2="100%" y2="100%">
      <stop offset="0%" style="stop-color:#3b82f6"/>
      <stop offset="100%" style="stop-color:#1d4ed8"/>
    </linearGradient>
  </defs>
  
  <!-- Calendar background -->
  <rect x="4" y="6" width="24" height="22" rx="3" ry="3" fill="url(#bg)" stroke="#1e40af" stroke-width="0.5"/>
  
  <!-- Calendar binding holes -->
  <circle cx="10" cy="3" r="1.5" fill="#6b7280"/>
  <circle cx="22" cy="3" r="1.5" fill="#6b7280"/>
  
  <!-- Calendar binding rings -->
  <rect x="9" y="2" width="2" height="6" rx="1" fill="#6b7280"/>
  <rect x="21" y="2" width="2" height="6" rx="1" fill="#6b7280"/>
  
  <!-- Calendar header -->
  <rect x="4" y="6" width="24" height="5" rx="3" ry="0" fill="#1e40af"/>
  
  <!-- Calendar grid lines -->
  <g stroke="#dbeafe" stroke-width="0.3" opacity="0.6">
    <line x1="7.5" y1="13" x2="7.5" y2="26"/>
    <line x1="11" y1="13" x2="11" y2="26"/>
    <line x1="14.5" y1="13" x2="14.5" y2="26"/>
    <line x1="18" y1="13" x2="18" y2="26"/>
    <line x1="21.5" y1="13" x2="21.5" y2="26"/>
    <line x1="25" y1="13" x2="25" y2="26"/>
    
    <line x1="6" y1="15.5" x2="26" y2="15.5"/>
    <line x1="6" y1="18.5" x2="26" y2="18.5"/>
    <line x1="6" y1="21.5" x2="26" y2="21.5"/>
    <line x1="6" y1="24.5" x2="26" y2="24.5"/>
  </g>
  
  <!-- Small date dots to represent appointments -->
  <circle cx="9.25" cy="17" r="0.5" fill="#fbbf24"/>
  <circle cx="16" cy="17" r="0.5" fill="#fbbf24"/>
  <circle cx="22.75" cy="20" r="0.5" fill="#fbbf24"/>
  <circle cx="12.5" cy="23" r="0.5" fill="#fbbf24"/>
  
  <!-- Checkmark for confirmed reservation -->
  <g transform="translate(19, 22)">
    <circle r="2.5" fill="#10b981"/>
    <path d="M-1 0 L-0.2 0.8 L1.2 -0.6" stroke="white" stroke-width="0.6" fill="none" stroke-linecap="round" stroke-linejoin="round"/>
  </g>
</svg> 